<?xml version="1.0" encoding="iso-8859-1"?>
<!-- Generator: Adobe Illustrator 18.0.0, SVG Export Plug-In . SVG Version: 6.00 Build 0)  -->
<!DOCTYPE svg PUBLIC "-//W3C//DTD SVG 1.1//EN" "http://www.w3.org/Graphics/SVG/1.1/DTD/svg11.dtd">
<svg xmlns="http://www.w3.org/2000/svg" xmlns:xlink="http://www.w3.org/1999/xlink" version="1.1" id="Capa_1" x="0px" y="0px" viewBox="0 0 321 321" style="enable-background:new 0 0 321 321;" xml:space="preserve" width="512px" height="512px">
<g>
	<path d="M160.5,0C72,0,0,72,0,160.5S72,321,160.5,321S321,249,321,160.5S249,0,160.5,0z M160.5,291C88.542,291,30,232.458,30,160.5   S88.542,30,160.5,30S291,88.542,291,160.5S232.458,291,160.5,291z" fill="#FFFFFF"/>
	<path d="M140.854,148.654c-4.771-2.754-10.122-4.127-16.045-4.127c-1.312,0-2.746,0.033-4.298,0.105   c-1.551,0.068-4.166,0.457-7.831,1.163l1.268-13.613h35.127v-23.203H90.25l-3.875,54.446l10.227,5.077   c5.077-1.646,9.8-2.463,14.177-2.463c5.734,0,10.011,1.101,12.836,3.314c2.819,2.21,4.232,5.29,4.232,9.238   c0,4.276-1.392,7.507-4.167,9.693c-2.77,2.19-6.744,3.281-11.917,3.281c-3.715,0-8.149-0.611-13.292-1.835   c-5.151-1.218-9.773-2.77-13.859-4.655v22.852c7.613,3.715,17.441,5.571,29.48,5.571c14.054,0,24.554-3.08,31.49-9.236   c6.934-6.162,10.398-14.999,10.398-26.517c0-6.585-1.322-12.391-3.982-17.426C149.341,155.294,145.626,151.4,140.854,148.654z" fill="#FFFFFF"/>
	<path d="M199.149,107.5c-12.597,0-21.959,4.276-28.068,12.836c-6.112,8.559-9.165,22.007-9.165,40.343   c0,17.49,3.124,30.665,9.375,39.529c6.257,8.86,15.54,13.292,27.858,13.292c12.601,0,21.962-4.243,28.074-12.73   c6.11-8.486,9.165-21.85,9.165-40.091c0-17.636-3.137-30.904-9.415-39.815C220.7,111.955,211.424,107.5,199.149,107.5z    M206.524,184.515c-1.436,4.517-3.893,6.769-7.375,6.769c-3.432,0-5.875-2.187-7.33-6.559c-1.463-4.371-2.192-12.39-2.192-24.046   c0-11.757,0.729-19.844,2.192-24.265c1.455-4.416,3.898-6.63,7.33-6.63c3.436,0,5.879,2.29,7.336,6.88   c1.455,4.581,2.185,12.586,2.185,24.015C208.67,172.058,207.953,179.999,206.524,184.515z" fill="#FFFFFF"/>
</g>
<g>
</g>
<g>
</g>
<g>
</g>
<g>
</g>
<g>
</g>
<g>
</g>
<g>
</g>
<g>
</g>
<g>
</g>
<g>
</g>
<g>
</g>
<g>
</g>
<g>
</g>
<g>
</g>
<g>
</g>
</svg>
