<svg height="512pt" viewBox="0 -37 512 511" width="512pt" xmlns="http://www.w3.org/2000/svg"><path d="m451 254.898438v181.800781l-195-99.300781-195 99.300781v-181.800781h30l165 48.902343 165-48.902343zm0 0" fill="#6aa9ff"/><path d="m451 254.898438v181.800781l-195-99.300781v-33.597657l165-48.902343zm0 0" fill="#4895ff"/><path d="m512 240.800781-256 96.597657-256-96.597657 97.898438-237.902343 69.300781 27.902343h177.601562l69.300781-27.902343zm0 0" fill="#4a696f"/><path d="m512 240.800781-256 96.597657v-306.597657h88.800781l69.300781-27.902343zm0 0" fill="#384949"/><path d="m436 199.398438h-360l87-198.898438 24 2.699219c24.902344 2.699219 48.902344 12.300781 69 27.300781 20.101562-15 44.101562-24.601562 69-27.300781l24-2.699219zm0 0" fill="#faecd8"/><path d="m436 199.398438h-180v-168.898438c20.097656-15 44.097656-24.601562 69-27.300781l24-2.699219zm0 0" fill="#f4d7af"/><path d="m436 199.398438c-21.597656-40.199219-77.402344-54.898438-122.699219-36.597657l-57.300781 23.398438-57.300781-23.398438c-45.296875-18.300781-101.101563-3.601562-122.699219 36.597657l-2.699219 6.300781 27.597657 10.199219 155.101562 58.5 155.097656-58.5 27.601563-10.199219zm0 0" fill="#f4d7af"/><path d="m438.699219 205.699219-27.601563 10.199219-155.097656 58.5v-88.199219l57.300781-23.398438c45.296875-18.300781 101.101563-3.601562 122.699219 36.597657zm0 0" fill="#dabba6"/></svg>